<svg width="32" height="32" viewBox="0 0 32 32" fill="none" xmlns="http://www.w3.org/2000/svg">
<path d="M4.29073 5.53766C4.12967 5.53574 3.97168 5.5817 3.83683 5.66969C3.70198 5.75769 3.59636 5.88374 3.53339 6.03185C3.47043 6.17995 3.45296 6.3434 3.4832 6.50145C3.51344 6.65949 3.59003 6.80498 3.70324 6.91944C3.81645 7.0339 3.96116 7.11215 4.11899 7.14425C4.27682 7.17635 4.44065 7.16086 4.58964 7.09973C4.73863 7.03861 4.86607 6.93461 4.95577 6.80096C5.04546 6.66731 5.09335 6.51004 5.09337 6.34914C5.09465 6.24303 5.07483 6.13773 5.03507 6.03933C4.9953 5.94093 4.93639 5.85139 4.86173 5.77591C4.78707 5.70043 4.69815 5.6405 4.60013 5.5996C4.50212 5.5587 4.39695 5.53765 4.29073 5.53766Z" fill="#D2D1F9"/>
<path d="M7.12793 5.5376C6.96727 5.5376 6.81022 5.58519 6.67664 5.67436C6.54305 5.76352 6.43894 5.89026 6.37746 6.03854C6.31598 6.18682 6.29989 6.34998 6.33123 6.50739C6.36258 6.66481 6.43994 6.8094 6.55354 6.92289C6.66715 7.03638 6.81189 7.11366 6.96946 7.14497C7.12703 7.17628 7.29036 7.16021 7.43879 7.0988C7.58722 7.03738 7.71408 6.93337 7.80334 6.79992C7.8926 6.66647 7.94024 6.50958 7.94024 6.34908C7.94024 6.24252 7.91923 6.13699 7.87841 6.03854C7.83758 5.94009 7.77775 5.85063 7.70232 5.77528C7.62689 5.69992 7.53734 5.64015 7.43879 5.59937C7.34023 5.55859 7.23461 5.5376 7.12793 5.5376V5.5376Z" fill="#D2D1F9"/>
<path d="M9.95918 5.53766C9.79852 5.53766 9.64147 5.58525 9.50789 5.67442C9.3743 5.76358 9.27019 5.89032 9.20871 6.0386C9.14723 6.18688 9.13114 6.35004 9.16248 6.50745C9.19383 6.66487 9.27119 6.80946 9.38479 6.92295C9.4984 7.03643 9.64314 7.11372 9.80071 7.14503C9.95828 7.17634 10.1216 7.16027 10.27 7.09885C10.4185 7.03743 10.5453 6.93342 10.6346 6.79998C10.7238 6.66653 10.7715 6.50964 10.7715 6.34914C10.7728 6.24222 10.7527 6.13611 10.7123 6.03707C10.6719 5.93803 10.6122 5.84806 10.5365 5.77245C10.4608 5.69683 10.3707 5.63711 10.2716 5.59679C10.1724 5.55646 10.0662 5.53636 9.95918 5.53766V5.53766Z" fill="#D2D1F9"/>
<path d="M26.1273 26.4701C26.1273 26.7775 26.005 27.0724 25.7874 27.2898C25.5697 27.5072 25.2746 27.6293 24.9668 27.6293H13.9426C13.8107 27.6393 13.6781 27.6393 13.5462 27.6293C13.4144 27.6441 13.2814 27.6441 13.1497 27.6293H3.07319C2.77217 27.6193 2.48685 27.4927 2.27753 27.2764C2.0682 27.0601 1.95126 26.7709 1.95143 26.4701V9.24536H26.1273V9.50619H27.0943V5.53572C27.0944 5.25758 27.0388 4.98223 26.9308 4.72587C26.8228 4.4695 26.6646 4.23728 26.4655 4.04287C26.2664 3.84846 26.0304 3.69578 25.7713 3.5938C25.5123 3.49182 25.2355 3.44261 24.9571 3.44905H3.07319C2.51921 3.44905 1.98791 3.66889 1.59619 4.06022C1.20447 4.45154 0.984397 4.9823 0.984397 5.53572V26.4701C0.983124 26.7449 1.03621 27.0173 1.14061 27.2716C1.24501 27.5258 1.39867 27.757 1.59276 27.9518C1.78685 28.1466 2.01755 28.3012 2.2716 28.4066C2.52566 28.5121 2.79807 28.5664 3.07319 28.5664H24.9571C25.2363 28.5729 25.5139 28.5233 25.7736 28.4208C26.0333 28.3182 26.2697 28.1646 26.469 27.9692C26.6682 27.7738 26.8262 27.5404 26.9336 27.2829C27.041 27.0254 27.0957 26.749 27.0943 26.4701V23.9004H26.1273V26.4701ZM1.95143 5.53572C1.96109 5.24158 2.08238 4.96212 2.29069 4.75401C2.499 4.54591 2.77875 4.42475 3.07319 4.4151H24.9571C25.26 4.41241 25.5519 4.52811 25.7705 4.73748C25.9891 4.94686 26.1172 5.23333 26.1273 5.53572V8.27931H1.95143V5.53572Z" fill="#D2D1F9"/>
<path d="M28.7472 10.886H15.112C14.5751 10.886 14.06 11.0984 13.6795 11.4768C13.2989 11.8551 13.0838 12.3687 13.0812 12.905V25.8115C13.0814 25.9019 13.108 25.9904 13.1579 26.0659C13.2077 26.1414 13.2785 26.2007 13.3617 26.2366C13.4222 26.2502 13.4849 26.2502 13.5454 26.2366C13.6595 26.2381 13.7699 26.1967 13.8549 26.1206L18.0131 22.4689H28.7472C29.2841 22.4664 29.7982 22.2515 30.1769 21.8713C30.5557 21.4912 30.7683 20.9766 30.7683 20.4402V12.905C30.7657 12.3703 30.552 11.8583 30.1735 11.4802C29.795 11.1021 29.2824 10.8885 28.7472 10.886ZM29.8399 20.4789C29.8399 20.7684 29.7248 21.0461 29.5199 21.2508C29.3149 21.4555 29.037 21.5705 28.7472 21.5705H17.8391C17.7259 21.574 17.6171 21.6147 17.5296 21.6864L14.0193 24.7778V12.905C14.0193 12.6155 14.1344 12.3379 14.3393 12.1331C14.5443 11.9284 14.8222 11.8134 15.112 11.8134H28.7472C29.0362 11.8159 29.3127 11.9317 29.5171 12.1359C29.7215 12.3401 29.8374 12.6163 29.8399 12.905V20.4789Z" fill="#D2D1F9"/>
<path d="M21.4679 17.8657H17.271C17.1428 17.8657 17.0198 17.9166 16.9291 18.0072C16.8384 18.0978 16.7875 18.2206 16.7875 18.3487C16.7875 18.4769 16.8384 18.5997 16.9291 18.6903C17.0198 18.7809 17.1428 18.8318 17.271 18.8318H21.4679C21.5962 18.8318 21.7192 18.7809 21.8098 18.6903C21.9005 18.5997 21.9515 18.4769 21.9515 18.3487C21.9515 18.2206 21.9005 18.0978 21.8098 18.0072C21.7192 17.9166 21.5962 17.8657 21.4679 17.8657Z" fill="#D2D1F9"/>
<path d="M26.583 14.6073H17.2704C17.1481 14.6098 17.0315 14.6595 16.9449 14.7459C16.8584 14.8323 16.8087 14.9488 16.8063 15.071C16.8063 15.194 16.8552 15.312 16.9422 15.3989C17.0293 15.4859 17.1473 15.5347 17.2704 15.5347H26.583C26.6507 15.5438 26.7196 15.5374 26.7846 15.5161C26.8496 15.4948 26.9089 15.4592 26.9581 15.4119C27.0074 15.3645 27.0453 15.3067 27.0691 15.2426C27.0929 15.1786 27.1019 15.1101 27.0955 15.0421C27.0919 14.9794 27.0756 14.918 27.0476 14.8618C27.0196 14.8056 26.9804 14.7556 26.9325 14.715C26.8846 14.6743 26.8289 14.6438 26.7688 14.6253C26.7087 14.6068 26.6455 14.6007 26.583 14.6073Z" fill="#D2D1F9"/>
</svg>
