<svg width="20" height="20" viewBox="0 0 20 20" fill="none" xmlns="http://www.w3.org/2000/svg">
<path d="M2.68171 3.46061C2.58104 3.45941 2.4823 3.48813 2.39802 3.54313C2.31374 3.59813 2.24773 3.67691 2.20837 3.76948C2.16902 3.86204 2.1581 3.9642 2.177 4.06298C2.1959 4.16175 2.24377 4.25269 2.31453 4.32422C2.38528 4.39576 2.47573 4.44467 2.57437 4.46473C2.67302 4.48479 2.7754 4.47511 2.86852 4.43691C2.96165 4.3987 3.0413 4.33371 3.09735 4.25017C3.15341 4.16664 3.18335 4.06835 3.18335 3.96778C3.18415 3.90147 3.17177 3.83565 3.14692 3.77415C3.12206 3.71265 3.08524 3.65669 3.03858 3.60952C2.99192 3.56234 2.93634 3.52488 2.87508 3.49932C2.81382 3.47376 2.74809 3.4606 2.68171 3.46061Z" fill="#D2D1F9"/>
<path d="M4.45496 3.46057C4.35455 3.46057 4.25639 3.49032 4.1729 3.54605C4.08941 3.60178 4.02434 3.68099 3.98591 3.77366C3.94749 3.86633 3.93743 3.96831 3.95702 4.06669C3.97661 4.16508 4.02496 4.25545 4.09597 4.32638C4.16697 4.39731 4.25743 4.44561 4.35591 4.46518C4.45439 4.48475 4.55647 4.47471 4.64924 4.43632C4.74201 4.39793 4.8213 4.33293 4.87709 4.24952C4.93287 4.16612 4.96265 4.06806 4.96265 3.96775C4.96265 3.90115 4.94952 3.83519 4.924 3.77366C4.89849 3.71213 4.86109 3.65622 4.81395 3.60912C4.76681 3.56202 4.71084 3.52467 4.64924 3.49918C4.58765 3.47369 4.52163 3.46057 4.45496 3.46057Z" fill="#D2D1F9"/>
<path d="M6.22644 3.46061C6.12603 3.46061 6.02787 3.49035 5.94438 3.54608C5.86089 3.60181 5.79582 3.68102 5.7574 3.7737C5.71897 3.86637 5.70892 3.96835 5.72851 4.06673C5.74809 4.16511 5.79645 4.25548 5.86745 4.32641C5.93845 4.39734 6.02891 4.44565 6.1274 4.46522C6.22588 4.48479 6.32796 4.47474 6.42073 4.43636C6.5135 4.39797 6.59279 4.33296 6.64857 4.24956C6.70436 4.16615 6.73414 4.0681 6.73414 3.96779C6.73495 3.90096 6.72237 3.83464 6.69714 3.77274C6.67191 3.71084 6.63455 3.65461 6.58724 3.60735C6.53994 3.56009 6.48365 3.52277 6.42168 3.49756C6.35972 3.47236 6.29334 3.4598 6.22644 3.46061Z" fill="#D2D1F9"/>
<path d="M16.3295 16.5434C16.3295 16.7356 16.2531 16.9198 16.1171 17.0557C15.9811 17.1916 15.7966 17.2679 15.6043 17.2679H8.71415C8.63167 17.2742 8.54883 17.2742 8.46635 17.2679C8.384 17.2772 8.30089 17.2772 8.21854 17.2679H1.92074C1.73261 17.2617 1.55428 17.1826 1.42345 17.0474C1.29262 16.9122 1.21954 16.7314 1.21964 16.5434V5.77795H16.3295V5.94097H16.9339V3.45943C16.934 3.28559 16.8992 3.1135 16.8317 2.95327C16.7643 2.79304 16.6654 2.64791 16.5409 2.5264C16.4165 2.40489 16.269 2.30947 16.1071 2.24573C15.9452 2.18199 15.7722 2.15123 15.5982 2.15526H1.92074C1.5745 2.15526 1.24245 2.29266 0.997619 2.53724C0.752791 2.78182 0.615248 3.11354 0.615248 3.45943V16.5434C0.614452 16.7152 0.647632 16.8854 0.712883 17.0443C0.778134 17.2033 0.87417 17.3477 0.995475 17.4695C1.11678 17.5912 1.26097 17.6878 1.41975 17.7538C1.57854 17.8197 1.74879 17.8536 1.92074 17.8536H15.5982C15.7727 17.8576 15.9462 17.8267 16.1085 17.7626C16.2708 17.6985 16.4186 17.6025 16.5431 17.4804C16.6676 17.3582 16.7664 17.2123 16.8335 17.0514C16.9006 16.8905 16.9348 16.7177 16.9339 16.5434V14.9373H16.3295V16.5434ZM1.21964 3.45943C1.22568 3.27559 1.30149 3.10093 1.43168 2.97086C1.56188 2.8408 1.73672 2.76507 1.92074 2.75904H15.5982C15.7875 2.75736 15.9699 2.82967 16.1066 2.96053C16.2432 3.09139 16.3232 3.27043 16.3295 3.45943V5.17417H1.21964V3.45943Z" fill="#D2D1F9"/>
<path d="M17.9689 6.80334H9.44696C9.11139 6.80334 8.78947 6.9361 8.55161 7.17258C8.31376 7.40906 8.17933 7.73002 8.17773 8.06525V16.1318C8.17783 16.1883 8.19447 16.2436 8.22561 16.2908C8.25676 16.338 8.30104 16.3751 8.35301 16.3974C8.39081 16.406 8.43004 16.406 8.46784 16.3974C8.53913 16.3984 8.60817 16.3725 8.66125 16.325L11.2602 14.0427H17.9689C18.3045 14.0411 18.6258 13.9068 18.8625 13.6692C19.0992 13.4316 19.2321 13.11 19.2321 12.7748V8.06525C19.2305 7.73106 19.0969 7.41101 18.8604 7.1747C18.6238 6.93839 18.3035 6.80493 17.9689 6.80334ZM18.6519 12.7989C18.6519 12.9799 18.58 13.1534 18.4519 13.2813C18.3238 13.4093 18.1501 13.4812 17.9689 13.4812H11.1514C11.0807 13.4833 11.0126 13.5088 10.958 13.5536L8.764 15.4857V8.06525C8.764 7.8843 8.83595 7.71076 8.96403 7.58281C9.09212 7.45486 9.26583 7.38298 9.44696 7.38298H17.9689C18.1496 7.38455 18.3224 7.45694 18.4501 7.58455C18.5779 7.71216 18.6503 7.88479 18.6519 8.06525V12.7989Z" fill="#D2D1F9"/>
<path d="M13.4175 11.1656H10.7944C10.7142 11.1656 10.6374 11.1975 10.5807 11.2541C10.524 11.3107 10.4922 11.3875 10.4922 11.4675C10.4922 11.5476 10.524 11.6244 10.5807 11.681C10.6374 11.7376 10.7142 11.7694 10.7944 11.7694H13.4175C13.4976 11.7694 13.5745 11.7376 13.6311 11.681C13.6878 11.6244 13.7197 11.5476 13.7197 11.4675C13.7197 11.3875 13.6878 11.3107 13.6311 11.2541C13.5745 11.1975 13.4976 11.1656 13.4175 11.1656Z" fill="#D2D1F9"/>
<path d="M16.6143 9.12919H10.794C10.7176 9.13073 10.6447 9.16176 10.5906 9.21578C10.5365 9.2698 10.5055 9.34262 10.5039 9.41901C10.5039 9.49587 10.5345 9.56958 10.5889 9.62394C10.6433 9.67829 10.7171 9.70882 10.794 9.70882H16.6143C16.6567 9.71446 16.6998 9.71048 16.7404 9.69718C16.781 9.68388 16.818 9.66161 16.8488 9.63201C16.8796 9.60242 16.9033 9.56627 16.9182 9.52625C16.933 9.48623 16.9387 9.44338 16.9347 9.40089C16.9324 9.3617 16.9223 9.32337 16.9047 9.28823C16.8872 9.25308 16.8628 9.22186 16.8328 9.19645C16.8028 9.17105 16.768 9.15198 16.7305 9.14042C16.6929 9.12886 16.6534 9.12504 16.6143 9.12919Z" fill="#D2D1F9"/>
</svg>
